<svg width="1681" height="501" viewBox="0 0 1681 501" fill="none" xmlns="http://www.w3.org/2000/svg">
    <path d="M1638.51 87.0883H1593.92V42.4845C1594.19 37.0062 1593.35 31.5303 1591.44 26.3885C1589.53 21.2468 1586.59 16.5465 1582.81 12.5735C1579.03 8.60042 1574.48 5.43739 1569.43 3.27596C1564.39 1.11454 1558.96 0 1553.47 0C1547.99 0 1542.56 1.11454 1537.52 3.27596C1532.48 5.43739 1527.93 8.60042 1524.14 12.5735C1520.36 16.5465 1517.42 21.2468 1515.51 26.3885C1513.6 31.5303 1512.76 37.0062 1513.03 42.4845V87.0883H1468.49C1463.01 86.8175 1457.54 87.6625 1452.39 89.5724C1447.25 91.4823 1442.55 94.4173 1438.58 98.1988C1434.6 101.98 1431.44 106.53 1429.28 111.571C1427.11 116.612 1426 122.04 1426 127.525C1426 133.01 1427.11 138.437 1429.28 143.479C1431.44 148.52 1434.6 153.069 1438.58 156.851C1442.55 160.632 1447.25 163.567 1452.39 165.477C1457.54 167.387 1463.01 168.232 1468.49 167.961H1513.03V212.516C1512.76 217.994 1513.6 223.47 1515.51 228.612C1517.42 233.753 1520.36 238.453 1524.14 242.427C1527.93 246.4 1532.48 249.563 1537.52 251.724C1542.56 253.885 1547.99 255 1553.47 255C1558.96 255 1564.39 253.885 1569.43 251.724C1574.48 249.563 1579.03 246.4 1582.81 242.427C1586.59 238.453 1589.53 233.753 1591.44 228.612C1593.35 223.47 1594.19 217.994 1593.92 212.516V167.961H1638.51C1643.98 168.232 1649.46 167.387 1654.61 165.477C1659.75 163.567 1664.45 160.632 1668.42 156.851C1672.4 153.069 1675.56 148.52 1677.72 143.479C1679.89 138.437 1681 133.01 1681 127.525C1681 122.04 1679.89 116.612 1677.72 111.571C1675.56 106.53 1672.4 101.98 1668.42 98.1988C1664.45 94.4173 1659.75 91.4823 1654.61 89.5724C1649.46 87.6625 1643.98 86.8175 1638.51 87.0883M1638.51 140.638H1593.92H1566.58V212.545C1566.49 215.959 1565.07 219.202 1562.62 221.584C1560.17 223.966 1556.89 225.299 1553.47 225.299C1550.05 225.299 1546.77 223.966 1544.32 221.584C1541.88 219.202 1540.45 215.959 1540.36 212.545V167.991V140.658H1513.03H1468.49C1466.74 140.706 1465 140.402 1463.37 139.765C1461.73 139.128 1460.24 138.17 1458.99 136.948C1457.73 135.726 1456.73 134.265 1456.05 132.651C1455.37 131.036 1455.02 129.302 1455.02 127.549C1455.02 125.797 1455.37 124.062 1456.05 122.448C1456.73 120.834 1457.73 119.372 1458.99 118.15C1460.24 116.929 1461.73 115.971 1463.37 115.333C1465 114.696 1466.74 114.393 1468.49 114.441H1540.41V87.1179V42.5143C1540.36 40.7626 1540.66 39.019 1541.3 37.3866C1541.94 35.7541 1542.9 34.2658 1544.12 33.0098C1545.34 31.7538 1546.8 30.7554 1548.42 30.0737C1550.03 29.392 1551.77 29.041 1553.52 29.041C1555.27 29.041 1557.01 29.392 1558.62 30.0737C1560.24 30.7554 1561.7 31.7538 1562.92 33.0098C1564.14 34.2658 1565.1 35.7541 1565.74 37.3866C1566.38 39.019 1566.68 40.7626 1566.63 42.5143V114.451H1638.55C1641.96 114.545 1645.2 115.967 1647.59 118.415C1649.97 120.863 1651.3 124.144 1651.3 127.559C1651.3 130.975 1649.97 134.256 1647.59 136.704C1645.2 139.152 1641.96 140.574 1638.55 140.668" fill="#2AADD4"/>
    <path d="M7.39998 391.4H38.6V499H7.39998V391.4ZM23 376.4C17.2666 376.4 12.6 374.733 8.99998 371.4C5.39998 368.067 3.59998 363.933 3.59998 359C3.59998 354.067 5.39998 349.933 8.99998 346.6C12.6 343.267 17.2666 341.6 23 341.6C28.7333 341.6 33.4 343.2 37 346.4C40.6 349.6 42.4 353.6 42.4 358.4C42.4 363.6 40.6 367.933 37 371.4C33.4 374.733 28.7333 376.4 23 376.4Z" fill="#1E3745"/>
    <path d="M189.956 389.8C203.29 389.8 214.023 393.8 222.156 401.8C230.423 409.8 234.556 421.667 234.556 437.4V499H203.356V442.2C203.356 433.667 201.49 427.333 197.756 423.2C194.023 418.933 188.623 416.8 181.556 416.8C173.69 416.8 167.423 419.267 162.756 424.2C158.09 429 155.756 436.2 155.756 445.8V499H124.556V391.4H154.356V404C158.49 399.467 163.623 396 169.756 393.6C175.89 391.067 182.623 389.8 189.956 389.8Z" fill="#1E3745"/>
    <path d="M356.037 500.6C347.104 500.6 338.371 499.533 329.837 497.4C321.304 495.133 314.504 492.333 309.437 489L319.837 466.6C324.637 469.667 330.437 472.2 337.237 474.2C344.037 476.067 350.704 477 357.237 477C370.437 477 377.037 473.733 377.037 467.2C377.037 464.133 375.237 461.933 371.637 460.6C368.037 459.267 362.504 458.133 355.037 457.2C346.237 455.867 338.971 454.333 333.237 452.6C327.504 450.867 322.504 447.8 318.237 443.4C314.104 439 312.037 432.733 312.037 424.6C312.037 417.8 313.971 411.8 317.837 406.6C321.837 401.267 327.571 397.133 335.037 394.2C342.637 391.267 351.571 389.8 361.837 389.8C369.437 389.8 376.971 390.667 384.437 392.4C392.037 394 398.304 396.267 403.237 399.2L392.837 421.4C383.371 416.067 373.037 413.4 361.837 413.4C355.171 413.4 350.171 414.333 346.837 416.2C343.504 418.067 341.837 420.467 341.837 423.4C341.837 426.733 343.637 429.067 347.237 430.4C350.837 431.733 356.571 433 364.437 434.2C373.237 435.667 380.437 437.267 386.037 439C391.637 440.6 396.504 443.6 400.637 448C404.771 452.4 406.837 458.533 406.837 466.4C406.837 473.067 404.837 479 400.837 484.2C396.837 489.4 390.971 493.467 383.237 496.4C375.637 499.2 366.571 500.6 356.037 500.6Z" fill="#1E3745"/>
    <path d="M552.487 493.8C549.421 496.067 545.621 497.8 541.087 499C536.687 500.067 532.021 500.6 527.087 500.6C514.287 500.6 504.354 497.333 497.287 490.8C490.354 484.267 486.887 474.667 486.887 462V417.8H470.287V393.8H486.887V367.6H518.087V393.8H544.887V417.8H518.087V461.6C518.087 466.133 519.221 469.667 521.487 472.2C523.887 474.6 527.221 475.8 531.487 475.8C536.421 475.8 540.621 474.467 544.087 471.8L552.487 493.8Z" fill="#1E3745"/>
    <path d="M627.002 391.4H658.202V499H627.002V391.4ZM642.602 376.4C636.868 376.4 632.202 374.733 628.602 371.4C625.002 368.067 623.202 363.933 623.202 359C623.202 354.067 625.002 349.933 628.602 346.6C632.202 343.267 636.868 341.6 642.602 341.6C648.335 341.6 653.002 343.2 656.602 346.4C660.202 349.6 662.002 353.6 662.002 358.4C662.002 363.6 660.202 367.933 656.602 371.4C653.002 374.733 648.335 376.4 642.602 376.4Z" fill="#1E3745"/>
    <path d="M813.558 493.8C810.491 496.067 806.691 497.8 802.158 499C797.758 500.067 793.091 500.6 788.158 500.6C775.358 500.6 765.424 497.333 758.358 490.8C751.424 484.267 747.958 474.667 747.958 462V417.8H731.358V393.8H747.958V367.6H779.158V393.8H805.958V417.8H779.158V461.6C779.158 466.133 780.291 469.667 782.558 472.2C784.958 474.6 788.291 475.8 792.558 475.8C797.491 475.8 801.691 474.467 805.158 471.8L813.558 493.8Z" fill="#1E3745"/>
    <path d="M996.472 391.4V499H966.872V486.2C962.738 490.867 957.805 494.467 952.072 497C946.339 499.4 940.139 500.6 933.472 500.6C919.339 500.6 908.138 496.533 899.872 488.4C891.605 480.267 887.472 468.2 887.472 452.2V391.4H918.672V447.6C918.672 464.933 925.939 473.6 940.472 473.6C947.939 473.6 953.939 471.2 958.472 466.4C963.005 461.467 965.272 454.2 965.272 444.6V391.4H996.472Z" fill="#1E3745"/>
    <path d="M1134.38 500.6C1122.91 500.6 1112.58 498.267 1103.38 493.6C1094.31 488.8 1087.18 482.2 1081.98 473.8C1076.91 465.4 1074.38 455.867 1074.38 445.2C1074.38 434.533 1076.91 425 1081.98 416.6C1087.18 408.2 1094.31 401.667 1103.38 397C1112.58 392.2 1122.91 389.8 1134.38 389.8C1145.71 389.8 1155.58 392.2 1163.98 397C1172.51 401.667 1178.71 408.4 1182.58 417.2L1158.38 430.2C1152.78 420.333 1144.71 415.4 1134.18 415.4C1126.04 415.4 1119.31 418.067 1113.98 423.4C1108.64 428.733 1105.98 436 1105.98 445.2C1105.98 454.4 1108.64 461.667 1113.98 467C1119.31 472.333 1126.04 475 1134.18 475C1144.84 475 1152.91 470.067 1158.38 460.2L1182.58 473.4C1178.71 481.933 1172.51 488.6 1163.98 493.4C1155.58 498.2 1145.71 500.6 1134.38 500.6Z" fill="#1E3745"/>
    <path d="M1361.57 445.6C1361.57 446 1361.37 448.8 1360.97 454H1279.57C1281.04 460.667 1284.51 465.933 1289.97 469.8C1295.44 473.667 1302.24 475.6 1310.37 475.6C1315.97 475.6 1320.91 474.8 1325.17 473.2C1329.57 471.467 1333.64 468.8 1337.37 465.2L1353.97 483.2C1343.84 494.8 1329.04 500.6 1309.57 500.6C1297.44 500.6 1286.71 498.267 1277.37 493.6C1268.04 488.8 1260.84 482.2 1255.77 473.8C1250.71 465.4 1248.17 455.867 1248.17 445.2C1248.17 434.667 1250.64 425.2 1255.57 416.8C1260.64 408.267 1267.51 401.667 1276.17 397C1284.97 392.2 1294.77 389.8 1305.57 389.8C1316.11 389.8 1325.64 392.067 1334.17 396.6C1342.71 401.133 1349.37 407.667 1354.17 416.2C1359.11 424.6 1361.57 434.4 1361.57 445.6ZM1305.77 413.4C1298.71 413.4 1292.77 415.4 1287.97 419.4C1283.17 423.4 1280.24 428.867 1279.17 435.8H1332.17C1331.11 429 1328.17 423.6 1323.37 419.6C1318.57 415.467 1312.71 413.4 1305.77 413.4Z" fill="#1E3745"/>
    <path d="M123 258.6V285H0.599976V264L77.4 171.4H2.19998V145H120V166L43.4 258.6H123Z" fill="#2AADD4"/>
    <path d="M249.812 136.6V285H220.012V272.6C212.279 281.933 201.079 286.6 186.412 286.6C176.279 286.6 167.079 284.333 158.812 279.8C150.679 275.267 144.279 268.8 139.612 260.4C134.946 252 132.612 242.267 132.612 231.2C132.612 220.133 134.946 210.4 139.612 202C144.279 193.6 150.679 187.133 158.812 182.6C167.079 178.067 176.279 175.8 186.412 175.8C200.146 175.8 210.879 180.133 218.612 188.8V136.6H249.812ZM191.812 261C199.679 261 206.212 258.333 211.412 253C216.612 247.533 219.212 240.267 219.212 231.2C219.212 222.133 216.612 214.933 211.412 209.6C206.212 204.133 199.679 201.4 191.812 201.4C183.812 201.4 177.212 204.133 172.012 209.6C166.812 214.933 164.212 222.133 164.212 231.2C164.212 240.267 166.812 247.533 172.012 253C177.212 258.333 183.812 261 191.812 261Z" fill="#2AADD4"/>
    <path d="M308.489 191.6C312.222 186.4 317.222 182.467 323.489 179.8C329.889 177.133 337.222 175.8 345.489 175.8V204.6C342.022 204.333 339.689 204.2 338.489 204.2C329.556 204.2 322.556 206.733 317.489 211.8C312.422 216.733 309.889 224.2 309.889 234.2V285H278.689V177.4H308.489V191.6Z" fill="#2AADD4"/>
    <path d="M406.855 175.8C423.521 175.8 436.321 179.8 445.255 187.8C454.188 195.667 458.655 207.6 458.655 223.6V285H429.455V271.6C423.588 281.6 412.655 286.6 396.655 286.6C388.388 286.6 381.188 285.2 375.055 282.4C369.055 279.6 364.455 275.733 361.255 270.8C358.055 265.867 356.455 260.267 356.455 254C356.455 244 360.188 236.133 367.655 230.4C375.255 224.667 386.921 221.8 402.655 221.8H427.455C427.455 215 425.388 209.8 421.255 206.2C417.121 202.467 410.921 200.6 402.655 200.6C396.921 200.6 391.255 201.533 385.655 203.4C380.188 205.133 375.521 207.533 371.655 210.6L360.455 188.8C366.321 184.667 373.321 181.467 381.455 179.2C389.721 176.933 398.188 175.8 406.855 175.8ZM404.455 265.6C409.788 265.6 414.521 264.4 418.655 262C422.788 259.467 425.721 255.8 427.455 251V240H406.055C393.255 240 386.855 244.2 386.855 252.6C386.855 256.6 388.388 259.8 391.455 262.2C394.655 264.467 398.988 265.6 404.455 265.6Z" fill="#2AADD4"/>
    <path d="M591.739 177.4L546.339 285H514.139L468.939 177.4H501.139L530.939 250.6L561.739 177.4H591.739Z" fill="#2AADD4"/>
    <path d="M652.741 286.6C641.407 286.6 631.207 284.267 622.141 279.6C613.207 274.8 606.207 268.2 601.141 259.8C596.074 251.4 593.541 241.867 593.541 231.2C593.541 220.533 596.074 211 601.141 202.6C606.207 194.2 613.207 187.667 622.141 183C631.207 178.2 641.407 175.8 652.741 175.8C664.074 175.8 674.207 178.2 683.141 183C692.074 187.667 699.074 194.2 704.141 202.6C709.207 211 711.741 220.533 711.741 231.2C711.741 241.867 709.207 251.4 704.141 259.8C699.074 268.2 692.074 274.8 683.141 279.6C674.207 284.267 664.074 286.6 652.741 286.6ZM652.741 261C660.741 261 667.274 258.333 672.341 253C677.541 247.533 680.141 240.267 680.141 231.2C680.141 222.133 677.541 214.933 672.341 209.6C667.274 204.133 660.741 201.4 652.741 201.4C644.741 201.4 638.141 204.133 632.941 209.6C627.741 214.933 625.141 222.133 625.141 231.2C625.141 240.267 627.741 247.533 632.941 253C638.141 258.333 644.741 261 652.741 261Z" fill="#2AADD4"/>
    <path d="M801.995 279.8C798.929 282.067 795.129 283.8 790.595 285C786.195 286.067 781.529 286.6 776.595 286.6C763.795 286.6 753.862 283.333 746.795 276.8C739.862 270.267 736.395 260.667 736.395 248V203.8H719.795V179.8H736.395V153.6H767.595V179.8H794.395V203.8H767.595V247.6C767.595 252.133 768.729 255.667 770.995 258.2C773.395 260.6 776.729 261.8 780.995 261.8C785.929 261.8 790.129 260.467 793.595 257.8L801.995 279.8Z" fill="#2AADD4"/>
    <path d="M884.909 175.8C898.243 175.8 908.976 179.8 917.109 187.8C925.376 195.8 929.509 207.667 929.509 223.4V285H898.309V228.2C898.309 219.667 896.443 213.333 892.709 209.2C888.976 204.933 883.576 202.8 876.509 202.8C868.643 202.8 862.376 205.267 857.709 210.2C853.043 215 850.709 222.2 850.709 231.8V285H819.509V177.4H849.309V190C853.443 185.467 858.576 182 864.709 179.6C870.843 177.067 877.576 175.8 884.909 175.8Z" fill="#2AADD4"/>
    <path d="M957.791 177.4H988.991V285H957.791V177.4ZM973.391 162.4C967.657 162.4 962.991 160.733 959.391 157.4C955.791 154.067 953.991 149.933 953.991 145C953.991 140.067 955.791 135.933 959.391 132.6C962.991 129.267 967.657 127.6 973.391 127.6C979.124 127.6 983.791 129.2 987.391 132.4C990.991 135.6 992.791 139.6 992.791 144.4C992.791 149.6 990.991 153.933 987.391 157.4C983.791 160.733 979.124 162.4 973.391 162.4Z" fill="#2AADD4"/>
    <path d="M1069.95 286.6C1058.48 286.6 1048.15 284.267 1038.95 279.6C1029.88 274.8 1022.75 268.2 1017.55 259.8C1012.48 251.4 1009.95 241.867 1009.95 231.2C1009.95 220.533 1012.48 211 1017.55 202.6C1022.75 194.2 1029.88 187.667 1038.95 183C1048.15 178.2 1058.48 175.8 1069.95 175.8C1081.28 175.8 1091.15 178.2 1099.55 183C1108.08 187.667 1114.28 194.4 1118.15 203.2L1093.95 216.2C1088.35 206.333 1080.28 201.4 1069.75 201.4C1061.61 201.4 1054.88 204.067 1049.55 209.4C1044.21 214.733 1041.55 222 1041.55 231.2C1041.55 240.4 1044.21 247.667 1049.55 253C1054.88 258.333 1061.61 261 1069.75 261C1080.41 261 1088.48 256.067 1093.95 246.2L1118.15 259.4C1114.28 267.933 1108.08 274.6 1099.55 279.4C1091.15 284.2 1081.28 286.6 1069.95 286.6Z" fill="#2AADD4"/>
    <path d="M1181.53 242.8L1166.53 257.6V285H1135.33V136.6H1166.53V220.6L1212.13 177.4H1249.33L1204.53 223L1253.33 285H1215.53L1181.53 242.8Z" fill="#2AADD4"/>
    <path d="M1308.81 175.8C1325.47 175.8 1338.27 179.8 1347.21 187.8C1356.14 195.667 1360.61 207.6 1360.61 223.6V285H1331.41V271.6C1325.54 281.6 1314.61 286.6 1298.61 286.6C1290.34 286.6 1283.14 285.2 1277.01 282.4C1271.01 279.6 1266.41 275.733 1263.21 270.8C1260.01 265.867 1258.41 260.267 1258.41 254C1258.41 244 1262.14 236.133 1269.61 230.4C1277.21 224.667 1288.87 221.8 1304.61 221.8H1329.41C1329.41 215 1327.34 209.8 1323.21 206.2C1319.07 202.467 1312.87 200.6 1304.61 200.6C1298.87 200.6 1293.21 201.533 1287.61 203.4C1282.14 205.133 1277.47 207.533 1273.61 210.6L1262.41 188.8C1268.27 184.667 1275.27 181.467 1283.41 179.2C1291.67 176.933 1300.14 175.8 1308.81 175.8ZM1306.41 265.6C1311.74 265.6 1316.47 264.4 1320.61 262C1324.74 259.467 1327.67 255.8 1329.41 251V240H1308.01C1295.21 240 1288.81 244.2 1288.81 252.6C1288.81 256.6 1290.34 259.8 1293.41 262.2C1296.61 264.467 1300.94 265.6 1306.41 265.6ZM1320.81 134.8H1354.41L1318.21 163.6H1293.81L1320.81 134.8Z" fill="#2AADD4"/>
</svg>
